<?xml version="1.0" encoding="UTF-8"?>
<svg width="48px" height="48px" viewBox="0 0 48 48" version="1.1" xmlns="http://www.w3.org/2000/svg" xmlns:xlink="http://www.w3.org/1999/xlink">
    <title>logo</title>
    <defs>
        <polygon id="path-1" points="0 0 48 0 48 48 0 48"></polygon>
        <linearGradient x1="43.8995909%" y1="78.4420025%" x2="61.9441741%" y2="1.18910463%" id="linearGradient-3">
            <stop stop-color="#3566BB" offset="0%"></stop>
            <stop stop-color="#6BA2FF" offset="100%"></stop>
        </linearGradient>
        <path d="M11.5245923,9.78619626 C10.6216413,12.41625 8.3467231,20.0090257 7.58517871,22.6827967 L7.13127451,24.2738902 L7.07784226,24.4606332 C7.01415535,24.6867757 6.95262731,24.9139977 6.88948011,25.1406799 C7.50907824,26.3097126 6.53596376,25.7386893 7.13019507,26.9201355 L8.71290049,28.0974013 L11.0663002,29.324922 L13.9684427,30.4013271 L14.443396,30.4153598 L14.2469381,30.5740374 L14.6673796,30.3980888 C15.0252138,29.2420093 15.3744124,28.083771 15.7058002,26.9201355 L15.7840596,26.6464977 L16.2131367,25.1417593 C16.9752208,22.468528 19.1092722,14.8358131 19.7288703,12.1248014 C20.0370502,10.6200631 20.2448423,9.44455374 19.7607138,8.69326402 C19.3186834,7.91606776 18.1879708,7.56309112 16.722632,7.10972664 C15.7554544,6.85767757 14.9313025,6.6439486 14.2571927,6.64340888 C13.8971997,6.64340888 13.5803843,6.70493692 13.3072862,6.85335981 C12.4993259,7.23656075 12.0567558,8.34568458 11.5245923,9.78619626 Z" id="path-4"></path>
        <filter x="-49.5%" y="-31.3%" width="229.1%" height="171.3%" filterUnits="objectBoundingBox" id="filter-5">
            <feOffset dx="1" dy="1" in="SourceAlpha" result="shadowOffsetOuter1"></feOffset>
            <feGaussianBlur stdDeviation="0.5" in="shadowOffsetOuter1" result="shadowBlurOuter1"></feGaussianBlur>
            <feColorMatrix values="0 0 0 0 0   0 0 0 0 0   0 0 0 0 0  0 0 0 0.101207386 0" type="matrix" in="shadowBlurOuter1" result="shadowMatrixOuter1"></feColorMatrix>
            <feMorphology radius="0.5" operator="dilate" in="SourceAlpha" result="shadowSpreadOuter2"></feMorphology>
            <feOffset dx="2" dy="1" in="shadowSpreadOuter2" result="shadowOffsetOuter2"></feOffset>
            <feGaussianBlur stdDeviation="2" in="shadowOffsetOuter2" result="shadowBlurOuter2"></feGaussianBlur>
            <feColorMatrix values="0 0 0 0 0   0 0 0 0 0   0 0 0 0 0  0 0 0 0.3 0" type="matrix" in="shadowBlurOuter2" result="shadowMatrixOuter2"></feColorMatrix>
            <feMerge>
                <feMergeNode in="shadowMatrixOuter1"></feMergeNode>
                <feMergeNode in="shadowMatrixOuter2"></feMergeNode>
            </feMerge>
        </filter>
        <path d="M5.60316633,28.0469082 C6.14288595,29.1009806 7.62009857,29.6347633 9.53394437,30.320747 C11.476935,30.9203755 12.9789747,31.3807563 14.0433018,30.8604666 C14.1086079,30.8329409 14.170136,30.7978591 14.2343626,30.7676348 C14.4815542,30.6521348 14.7055378,30.3536699 14.7055378,30.3536699 C14.5484794,30.511268 14.1404514,30.4373264 13.9866313,29.8139502 L13.9866313,29.8150297 C13.9520892,29.6541932 13.9148486,29.4874199 13.8759888,29.315789 C13.7210892,28.7021278 13.5640308,28.0890063 13.4037341,27.4769643 C13.2957902,27.0656979 13.1867668,26.6538918 13.076664,26.2426255 C12.4306196,23.8360157 11.7392388,21.4423591 11.0073789,19.0605764 C10.127636,16.1968241 8.45558455,11.1655577 7.45278549,8.34174463 C6.97783222,7.09607173 6.5897738,6.13537079 5.88166166,5.81423762 C5.19297941,5.45424463 4.18532287,5.73327967 2.88189997,6.09651098 C1.5957481,6.51695257 0.602124272,6.84456238 0.229178011,7.52622827 C-0.181548625,8.18630537 0.0284023096,9.20043855 0.324168665,10.5006231 C1.60762194,15.5917984 3.8177738,22.8175647 5.48172941,27.7953988 C5.51681119,27.881754 5.55621072,27.9670297 5.60316633,28.0469082" id="path-6"></path>
        <filter x="-27.0%" y="-15.6%" width="161.9%" height="137.1%" filterUnits="objectBoundingBox" id="filter-7">
            <feMorphology radius="0.5" operator="dilate" in="SourceAlpha" result="shadowSpreadOuter1"></feMorphology>
            <feOffset dx="1" dy="1" in="shadowSpreadOuter1" result="shadowOffsetOuter1"></feOffset>
            <feGaussianBlur stdDeviation="1" in="shadowOffsetOuter1" result="shadowBlurOuter1"></feGaussianBlur>
            <feColorMatrix values="0 0 0 0 0   0 0 0 0 0   0 0 0 0 0  0 0 0 0.304742133 0" type="matrix" in="shadowBlurOuter1"></feColorMatrix>
        </filter>
        <linearGradient x1="44.7862318%" y1="78.4420025%" x2="60.2081933%" y2="1.18910463%" id="linearGradient-8">
            <stop stop-color="#3566BB" offset="0%"></stop>
            <stop stop-color="#6BA2FF" offset="100%"></stop>
        </linearGradient>
        <path d="M28.4264521,3.90757009 C27.3038353,7.17827103 25.5211413,12.9980678 24.5733937,16.3222009 L24.0093867,18.3018925 L23.9430011,18.5334322 C23.8631226,18.8146262 23.7875619,19.0974393 23.7082231,19.3791729 C22.2512672,25.4918837 21.5184059,26.7225953 22.8801185,29.5712355 C23.0132494,29.8497309 23.5776744,30.3548939 24.5733937,31.0867246 C24.9427524,31.2936582 25.6586435,31.6087345 26.721067,32.0319533 C27.7834905,32.4551721 28.7131841,32.8282539 29.5101478,33.1511986 C29.8516513,33.185021 30.043632,33.185021 30.0860899,33.1511986 C30.1459988,33.1074813 30.1260292,33.0707804 30.1805409,33.0211262 C30.3683633,32.8532734 30.956118,32.9245164 31.0975245,32.6886589 C31.2599801,32.3081565 31.4100222,31.9082243 31.5665409,31.4850841 C31.8606881,30.6280093 32.1488983,29.7687757 32.4311717,28.9079229 C32.621153,28.3288037 32.8084357,27.7486051 32.9924801,27.1678668 C33.5802348,25.3171682 34.1388446,23.4583738 34.6715479,21.5909439 L34.7681577,21.2514603 L35.3014007,19.3802523 C36.2491483,16.0561192 37.8580525,10.1866682 38.6276927,6.81557944 C39.0103539,4.9443715 39.2688796,3.48281075 38.667632,2.54855607 C38.1181974,1.58191822 36.7122278,1.14312617 34.8901343,0.580198598 C33.6870993,0.266081776 32.6621717,-4.26325641e-14 31.8239871,-4.26325641e-14 C31.3765596,-4.26325641e-14 30.9825642,0.0761004673 30.6425409,0.260684579 C29.6386624,0.737257009 29.0876086,2.11624065 28.4264521,3.90757009 Z" id="path-9"></path>
        <filter x="-29.6%" y="-18.1%" width="183.0%" height="142.2%" filterUnits="objectBoundingBox" id="filter-10">
            <feOffset dx="1" dy="0" in="SourceAlpha" result="shadowOffsetOuter1"></feOffset>
            <feGaussianBlur stdDeviation="0.5" in="shadowOffsetOuter1" result="shadowBlurOuter1"></feGaussianBlur>
            <feColorMatrix values="0 0 0 0 0   0 0 0 0 0   0 0 0 0 0  0 0 0 0.101207386 0" type="matrix" in="shadowBlurOuter1" result="shadowMatrixOuter1"></feColorMatrix>
            <feOffset dx="2" dy="1" in="SourceAlpha" result="shadowOffsetOuter2"></feOffset>
            <feGaussianBlur stdDeviation="2" in="shadowOffsetOuter2" result="shadowBlurOuter2"></feGaussianBlur>
            <feColorMatrix values="0 0 0 0 0   0 0 0 0 0   0 0 0 0 0  0 0 0 0.3 0" type="matrix" in="shadowBlurOuter2" result="shadowMatrixOuter2"></feColorMatrix>
            <feMerge>
                <feMergeNode in="shadowMatrixOuter1"></feMergeNode>
                <feMergeNode in="shadowMatrixOuter2"></feMergeNode>
            </feMerge>
        </filter>
        <path d="M30.0438839,32.0578886 C30.0163582,31.9645171 29.9834353,31.8522554 29.9461946,31.725961 C29.9375591,31.6860217 29.9278441,31.6466222 29.9202881,31.6039843 C29.9256853,31.6342086 29.9316222,31.6644329 29.9370194,31.6941175 C29.6828114,30.8251689 29.2531946,29.335003 29.0848021,28.7893465 C28.9487927,28.3473161 28.8111642,27.9052857 28.6719166,27.4632554 C27.7241689,24.4510801 26.7127343,21.459954 25.6419306,18.4893371 C24.8150801,16.1960685 22.6578208,9.74372033 21.7586479,7.47743762 C21.7575684,7.47581846 21.756489,7.4795965 21.7548698,7.47581846 C21.5033605,6.85460117 21.1908628,6.37856846 20.7493722,6.09413621 C19.8707086,5.45618762 18.4420708,5.63375537 16.5946105,5.86799369 C14.7584843,6.18426939 13.3406409,6.4320007 12.6865007,7.2982507 C12.6017647,7.39917827 12.5278231,7.50874136 12.4646759,7.62693995 C12.4614376,7.63233715 12.4581993,7.63017827 12.4555007,7.63233715 C12.4474049,7.64798902 12.4398488,7.66418061 12.431753,7.67983248 C12.6249726,7.34574603 13.3147343,7.50334416 13.6380264,8.45756846 C13.654218,8.49372967 13.6693301,8.53043061 13.6806642,8.5687507 C13.6806642,8.56929042 13.6812039,8.56767126 13.6812039,8.56767126 C13.6812039,8.56713154 13.6812039,8.56659182 13.6806642,8.5660521 C13.7233021,8.72742827 13.7686385,8.89366192 13.8150544,9.06475304 C14.7557857,12.2188745 17.0598488,19.5239797 18.1344306,22.6338442 C18.9877273,25.1030614 19.8809633,27.5587857 20.8179166,29.9983185 C20.9668792,30.3858371 21.2923301,31.1592554 21.3004259,31.1711292 C21.6847063,31.9067671 23.3578371,32.5932904 25.2366011,33.0957694 L26.8131222,33.4476666 C28.29951,33.7412741 29.4820357,33.8556946 30.3234586,33.3526759 C30.388225,33.3181339 30.4513722,33.2808932 30.5129002,33.2393348 C30.7223114,33.0995474 30.9106736,32.9203605 31.0839236,32.7060918 C31.0893208,32.6996152 31.0930988,32.6974563 31.0968768,32.6985357 C31.0990357,32.694218 31.1011946,32.6909797 31.1033535,32.6866619 C30.8734329,32.9489657 30.3256175,32.7973044 30.0438839,32.0578886" id="path-11"></path>
        <filter x="-22.1%" y="-150.6%" width="155.2%" height="271.9%" filterUnits="objectBoundingBox" id="filter-12">
            <feMorphology radius="0.5" operator="dilate" in="SourceAlpha" result="shadowSpreadOuter1"></feMorphology>
            <feOffset dx="1" dy="1" in="shadowSpreadOuter1" result="shadowOffsetOuter1"></feOffset>
            <feGaussianBlur stdDeviation="1" in="shadowOffsetOuter1" result="shadowBlurOuter1"></feGaussianBlur>
            <feColorMatrix values="0 0 0 0 0   0 0 0 0 0   0 0 0 0 0  0 0 0 0.3 0" type="matrix" in="shadowBlurOuter1"></feColorMatrix>
        </filter>
    </defs>
    <g id="logo" stroke="none" stroke-width="1" fill="none" fill-rule="evenodd">
        <g id="编组-3">
            <g id="编组">
                <mask id="mask-2" fill="white">
                    <use xlink:href="#path-1"></use>
                </mask>
                <g id="Clip-2"></g>
            </g>
            <g id="编组-2" transform="translate(4.500000, 7.500000)">
                <g id="Fill-5">
                    <use fill="black" fill-opacity="1" filter="url(#filter-5)" xlink:href="#path-4"></use>
                    <use fill="url(#linearGradient-3)" fill-rule="evenodd" xlink:href="#path-4"></use>
                </g>
                <g id="Fill-7">
                    <use fill="black" fill-opacity="1" filter="url(#filter-7)" xlink:href="#path-6"></use>
                    <use fill="#81B0FF" fill-rule="evenodd" xlink:href="#path-6"></use>
                </g>
                <g id="Fill-9">
                    <use fill="black" fill-opacity="1" filter="url(#filter-10)" xlink:href="#path-9"></use>
                    <use fill="url(#linearGradient-8)" fill-rule="evenodd" xlink:href="#path-9"></use>
                </g>
                <g id="Fill-11">
                    <use fill="black" fill-opacity="1" filter="url(#filter-12)" xlink:href="#path-11"></use>
                    <use fill="#81B0FF" fill-rule="evenodd" xlink:href="#path-11"></use>
                </g>
            </g>
        </g>
    </g>
</svg>