<?xml version="1.0" encoding="UTF-8"?>
<svg width="24px" height="24px" viewBox="0 0 24 24" version="1.1" xmlns="http://www.w3.org/2000/svg" xmlns:xlink="http://www.w3.org/1999/xlink">
    <title>文件夹</title>
    <g id="文件夹" stroke="none" stroke-width="1" fill="none" fill-rule="evenodd">
        <path d="M17.5186397,17.3747088 C17.4663702,17.6026655 17.4110384,17.8388304 17.2475749,18.0022939 C17.0841113,18.1657574 16.8624072,18.2496864 16.6312348,18.2496864 L5.65342422,18.2496864 L7.13174874,11.2459183 C7.17333798,11.0609006 7.22313886,10.7936077 7.38626139,10.6302579 C7.54938391,10.466908 7.77071586,10.3750487 8.00156671,10.374888 L18.1095594,10.3782292 C18.342235,10.3782292 18.6052885,10.4511759 18.7686558,10.6146569 C18.9320231,10.7781379 19.0401103,10.9896359 18.9805896,11.2498656 L17.5186397,17.3747088 Z M7.39548474,9.5 L17.2496864,9.49991041 L17.2496864,8.62493281 C17.2493521,8.14401463 16.855627,7.75028953 16.3747088,7.7499552 L11.9998208,7.7499552 L11.9998208,6.8749776 C11.999487,6.3942958 11.6055247,6.00066843 11.1248432,6 L5.8749776,6 C5.39382284,6.0003346 5,6.39382272 5,6.8749776 L5,17.3747088 L6.50676494,10.3647264 C6.55638364,10.1396154 6.61568118,9.91876379 6.77914472,9.75530026 C6.94260825,9.59183672 7.16431239,9.5 7.39548474,9.5 Z" fill="#448AFF" fill-rule="nonzero"></path>
    </g>
</svg>